# xmcd CD database file
#
# Track frame offsets:
#	150
#	33342
#	57267
#	79011
#	110206
#	142664
#	160859
#
# Disc length: 2837 seconds
#
# Revision: 0
# Processed by: cddbd v1.5.2PL0 Copyright (c) Steve Scherf et al.
# Submitted via: CDex 2.00
#
DISCID=520b1307
DTITLE=Julie Tippetts and Martin Archer - Vestigium CD A
DYEAR=2014
DGENRE=Jazz
TTITLE0=Mandolin Song In Orange
TTITLE1=Shiver Across The Soul
TTITLE2=Like Alice
TTITLE3=The Beckoning
TTITLE4=Firefly
TTITLE5=Ashen
TTITLE6=Secret
EXTD=YEAR: 2014
EXTT0=
EXTT1=
EXTT2=
EXTT3=
EXTT4=
EXTT5=
EXTT6=
PLAYORDER=
